<svg width="22" height="22" viewBox="0 0 22 22" fill="none" xmlns="http://www.w3.org/2000/svg">
<circle cx="11" cy="11" r="11" fill="#D72D2D"/>
<path d="M9.01199 13.3192L15.227 7.10416C15.3737 6.95749 15.5448 6.88416 15.7403 6.88416C15.9359 6.88416 16.107 6.95749 16.2537 7.10416C16.4003 7.25082 16.4737 7.42511 16.4737 7.62702C16.4737 7.82893 16.4003 8.00298 16.2537 8.14916L9.52533 14.8958C9.37866 15.0425 9.20755 15.1158 9.01199 15.1158C8.81644 15.1158 8.64533 15.0425 8.49866 14.8958L5.34533 11.7425C5.19866 11.5958 5.12826 11.4218 5.13413 11.2204C5.13999 11.0189 5.21651 10.8446 5.36366 10.6975C5.51082 10.5503 5.68511 10.477 5.88653 10.4775C6.08795 10.478 6.26199 10.5513 6.40866 10.6975L9.01199 13.3192Z" fill="white"/>
</svg>
